<?xml version="1.0" encoding="UTF-8"?>
<svg xmlns="http://www.w3.org/2000/svg" xmlns:xlink="http://www.w3.org/1999/xlink">
    <symbol id="receive"
            viewBox="0 0 512 512">
        <path
                d="M511.2 387l-23.25 100.8c-3.266 14.25-15.79 24.22-30.46 24.22C205.2 512 0 306.8 0 54.5c0-14.66 9.969-27.2 24.22-30.45l100.8-23.25C139.7-2.602 154.7 5.018 160.8 18.92l46.52 108.5c5.438 12.78 1.77 27.67-8.98 36.45L144.5 207.1c33.98 69.22 90.26 125.5 159.5 159.5l44.08-53.8c8.688-10.78 23.69-14.51 36.47-8.975l108.5 46.51C506.1 357.2 514.6 372.4 511.2 387z" />
    </symbol>

    <symbol id="hangup"
            viewBox="0 0 640 512">
        <path
                d="M271.1 367.5L227.9 313.7c-8.688-10.78-23.69-14.51-36.47-8.974l-108.5 46.51c-13.91 6-21.49 21.19-18.11 35.79l23.25 100.8C91.32 502 103.8 512 118.5 512c107.4 0 206.1-37.46 284.2-99.65l-88.75-69.56C300.6 351.9 286.6 360.3 271.1 367.5zM630.8 469.1l-159.6-125.1c65.03-78.97 104.7-179.5 104.7-289.5c0-14.66-9.969-27.2-24.22-30.45L451 .8125c-14.69-3.406-29.73 4.213-35.82 18.12l-46.52 108.5c-5.438 12.78-1.771 27.67 8.979 36.45l53.82 44.08C419.2 232.1 403.9 256.2 386.2 277.4L38.81 5.111C34.41 1.673 29.19 0 24.03 0C16.91 0 9.84 3.158 5.121 9.189c-8.188 10.44-6.37 25.53 4.068 33.7l591.1 463.1c10.5 8.203 25.57 6.328 33.69-4.078C643.1 492.4 641.2 477.3 630.8 469.1z" />
    </symbol>

    <symbol id="vid"
            viewBox="0 0 576 512">
        <path
              d="M384 112v288c0 26.51-21.49 48-48 48h-288c-26.51 0-48-21.49-48-48v-288c0-26.51 21.49-48 48-48h288C362.5 64 384 85.49 384 112zM576 127.5v256.9c0 25.5-29.17 40.39-50.39 25.79L416 334.7V177.3l109.6-75.56C546.9 87.13 576 102.1 576 127.5z" />
    </symbol>

    <symbol id="no-vid"
            viewBox="0 0 640 512">
        <path
              d="M32 399.1c0 26.51 21.49 47.1 47.1 47.1h287.1c19.57 0 36.34-11.75 43.81-28.56L32 121.8L32 399.1zM630.8 469.1l-89.21-69.92l15.99 11.02c21.22 14.59 50.41-.2971 50.41-25.8V127.5c0-25.41-29.07-40.37-50.39-25.76l-109.6 75.56l.0001 148.5l-32-25.08l.0001-188.7c0-26.51-21.49-47.1-47.1-47.1H113.9L38.81 5.111C34.41 1.673 29.19 0 24.03 0C16.91 0 9.84 3.158 5.121 9.189C-3.066 19.63-1.249 34.72 9.189 42.89l591.1 463.1c10.5 8.203 25.57 6.328 33.69-4.078C643.1 492.4 641.2 477.3 630.8 469.1z" />
    </symbol>

    <symbol id="mic"
            viewBox="0 0 384 512">
        <path
              d="M192 352c53.03 0 96-42.97 96-96v-160c0-53.03-42.97-96-96-96s-96 42.97-96 96v160C96 309 138.1 352 192 352zM344 192C330.7 192 320 202.7 320 215.1V256c0 73.33-61.97 132.4-136.3 127.7c-66.08-4.169-119.7-66.59-119.7-132.8L64 215.1C64 202.7 53.25 192 40 192S16 202.7 16 215.1v32.15c0 89.66 63.97 169.6 152 181.7V464H128c-18.19 0-32.84 15.18-31.96 33.57C96.43 505.8 103.8 512 112 512h160c8.222 0 15.57-6.216 15.96-14.43C288.8 479.2 274.2 464 256 464h-40v-33.77C301.7 418.5 368 344.9 368 256V215.1C368 202.7 357.3 192 344 192z" />
    </symbol>

    <symbol id="no-mic"
            viewBox="0 0 640 512">
        <path
              d="M383.1 464l-39.1-.0001v-33.77c20.6-2.824 39.98-9.402 57.69-18.72l-43.26-33.91c-14.66 4.65-30.28 7.179-46.68 6.144C245.7 379.6 191.1 317.1 191.1 250.9V247.2L143.1 209.5l.0001 38.61c0 89.65 63.97 169.6 151.1 181.7v34.15l-40 .0001c-17.67 0-31.1 14.33-31.1 31.1C223.1 504.8 231.2 512 239.1 512h159.1c8.838 0 15.1-7.164 15.1-15.1C415.1 478.3 401.7 464 383.1 464zM630.8 469.1l-159.3-124.9c15.37-25.94 24.53-55.91 24.53-88.21V216c0-13.25-10.75-24-23.1-24c-13.25 0-24 10.75-24 24l-.0001 39.1c0 21.12-5.559 40.77-14.77 58.24l-25.72-20.16c5.234-11.68 8.493-24.42 8.493-38.08l-.001-155.1c0-52.57-40.52-98.41-93.07-99.97c-54.37-1.617-98.93 41.95-98.93 95.95l0 54.25L38.81 5.111C34.41 1.673 29.19 0 24.03 0C16.91 0 9.839 3.158 5.12 9.189c-8.187 10.44-6.37 25.53 4.068 33.7l591.1 463.1c10.5 8.203 25.57 6.328 33.69-4.078C643.1 492.4 641.2 477.3 630.8 469.1z" />
    </symbol>

    <symbol id="share"
            viewBox="0 0 576 512">
        <path
              d="M528 0h-480C21.5 0 0 21.5 0 48v320C0 394.5 21.5 416 48 416h192L224 464H152C138.8 464 128 474.8 128 488S138.8 512 152 512h272c13.25 0 24-10.75 24-24s-10.75-24-24-24H352L336 416h192c26.5 0 48-21.5 48-48v-320C576 21.5 554.5 0 528 0zM512 352H64V64h448V352z" />
    </symbol>

    <symbol id="no-share"
            viewBox="0 0 512 512">
        <path
              d="M448 32C483.3 32 512 60.65 512 96V416C512 451.3 483.3 480 448 480H64C28.65 480 0 451.3 0 416V96C0 60.65 28.65 32 64 32H448zM175 208.1L222.1 255.1L175 303C165.7 312.4 165.7 327.6 175 336.1C184.4 346.3 199.6 346.3 208.1 336.1L255.1 289.9L303 336.1C312.4 346.3 327.6 346.3 336.1 336.1C346.3 327.6 346.3 312.4 336.1 303L289.9 255.1L336.1 208.1C346.3 199.6 346.3 184.4 336.1 175C327.6 165.7 312.4 165.7 303 175L255.1 222.1L208.1 175C199.6 165.7 184.4 165.7 175 175C165.7 184.4 165.7 199.6 175 208.1V208.1z" />
    </symbol>

    <symbol id="moon"
            viewBox="0 0 512 512">
        <path
                d="M32 256c0-123.8 100.3-224 223.8-224c11.36 0 29.7 1.668 40.9 3.746c9.616 1.777 11.75 14.63 3.279 19.44C245 86.5 211.2 144.6 211.2 207.8c0 109.7 99.71 193 208.3 172.3c9.561-1.805 16.28 9.324 10.11 16.95C387.9 448.6 324.8 480 255.8 480C132.1 480 32 379.6 32 256z" />
    </symbol>

    <symbol id="sun"
            viewBox="0 0 512 512">
        <path
                d="M256 159.1c-53.02 0-95.1 42.98-95.1 95.1S202.1 351.1 256 351.1s95.1-42.98 95.1-95.1S309 159.1 256 159.1zM509.3 347L446.1 255.1l63.15-91.01c6.332-9.125 1.104-21.74-9.826-23.72l-109-19.7l-19.7-109c-1.975-10.93-14.59-16.16-23.72-9.824L256 65.89L164.1 2.736c-9.125-6.332-21.74-1.107-23.72 9.824L121.6 121.6L12.56 141.3C1.633 143.2-3.596 155.9 2.736 164.1L65.89 256l-63.15 91.01c-6.332 9.125-1.105 21.74 9.824 23.72l109 19.7l19.7 109c1.975 10.93 14.59 16.16 23.72 9.824L256 446.1l91.01 63.15c9.127 6.334 21.75 1.107 23.72-9.822l19.7-109l109-19.7C510.4 368.8 515.6 356.1 509.3 347zM256 383.1c-70.69 0-127.1-57.31-127.1-127.1c0-70.69 57.31-127.1 127.1-127.1s127.1 57.3 127.1 127.1C383.1 326.7 326.7 383.1 256 383.1z" />
    </symbol>
</svg>
